<svg xmlns="http://www.w3.org/2000/svg" data-name="Layer 1" viewBox="0 0 512 640" x="0px" y="0px"><title>earth rocket</title><path d="M97.859,84.941a5.974,5.974,0,0,0,3.764-1.33c3.783-3.052,7.709-6.01,11.669-8.793a6,6,0,1,0-6.9-9.818c-4.176,2.934-8.316,6.054-12.3,9.271a6,6,0,0,0,3.771,10.67Z"/><path d="M26.431,179.6a5.995,5.995,0,0,0,7.74-3.476A216.68,216.68,0,0,1,84.387,99.062a6,6,0,1,0-8.461-8.508,228.6,228.6,0,0,0-52.972,81.309A6,6,0,0,0,26.431,179.6Z"/><path d="M437.017,362.754a6,6,0,0,0-8.23,2.069c-3.36,5.618-7.03,11.162-10.907,16.48a6,6,0,1,0,9.695,7.07c4.091-5.61,7.964-11.461,11.511-17.39A6,6,0,0,0,437.017,362.754Z"/><path d="M462.183,318.11a229.166,229.166,0,0,0,7.4-35.7,233.739,233.739,0,0,0,1.8-28.933,6,6,0,0,0-12,0,221.753,221.753,0,0,1-1.7,27.442,217.279,217.279,0,0,1-7.008,33.829c-1.959,6.7-4.271,13.382-6.873,19.853-1.6,3.976-3.335,7.946-5.161,11.8a6,6,0,1,0,10.846,5.137c1.928-4.072,3.761-8.265,5.45-12.463C457.674,332.24,460.115,325.187,462.183,318.11Z"/><ellipse cx="132.44" cy="56.676" rx="6.925" ry="6.919"/><path d="M406.189,396.45a6.92,6.92,0,1,0,6.925,6.92A6.93,6.93,0,0,0,406.189,396.45Z"/><path d="M344.526,479.866a8.012,8.012,0,1,0,8.012,8.011A8.021,8.021,0,0,0,344.526,479.866Z"/><circle cx="356.598" cy="461.722" r="11.03"/><path d="M40.721,55.272a8.012,8.012,0,1,0-8.012-8.012A8.021,8.021,0,0,0,40.721,55.272Z"/><path d="M52.793,32.134A11.03,11.03,0,1,0,41.763,21.1,11.041,11.041,0,0,0,52.793,32.134Z"/><path d="M154.6,31.825a17.98,17.98,0,0,1,11.3,11.336,6,6,0,0,0,11.387,0,17.982,17.982,0,0,1,11.3-11.336,6,6,0,0,0,0-11.381,17.985,17.985,0,0,1-11.3-11.337,6,6,0,0,0-11.387,0,17.982,17.982,0,0,1-11.3,11.337,6,6,0,0,0,0,11.381Zm16.992-8.9a30.278,30.278,0,0,0,3.2,3.206,30.278,30.278,0,0,0-3.2,3.206,30.459,30.459,0,0,0-3.2-3.206A30.459,30.459,0,0,0,171.59,22.928Z"/><path d="M237.875,480.175a17.982,17.982,0,0,1-11.3-11.336,6,6,0,0,0-11.387,0,17.98,17.98,0,0,1-11.3,11.336,6,6,0,0,0,0,11.381,17.982,17.982,0,0,1,11.3,11.337,6,6,0,0,0,11.387,0,17.983,17.983,0,0,1,11.3-11.337,6,6,0,0,0,0-11.381Zm-16.992,8.9a30.364,30.364,0,0,0-3.2-3.206,30.459,30.459,0,0,0,3.2-3.206,30.269,30.269,0,0,0,3.2,3.206A30.175,30.175,0,0,0,220.883,489.072Z"/><path d="M490.375,427.864a17.982,17.982,0,0,1-11.3-11.336,6,6,0,0,0-11.387,0,17.98,17.98,0,0,1-11.3,11.336,6,6,0,0,0,0,11.381,17.982,17.982,0,0,1,11.3,11.337,6,6,0,0,0,11.387,0,17.985,17.985,0,0,1,11.3-11.337,6,6,0,0,0,0-11.381Zm-16.992,8.9a30.459,30.459,0,0,0-3.2-3.206,30.459,30.459,0,0,0,3.2-3.206,30.184,30.184,0,0,0,3.2,3.206A30.184,30.184,0,0,0,473.383,436.761Z"/><path d="M496.937,41.847A197.954,197.954,0,0,0,376.484,89.688q-5.31,4.545-10.265,9.449a200.86,200.86,0,0,0-126.5-44.783c-110.4,0-200.214,89.325-200.214,199.119a198.279,198.279,0,0,0,15,75.912C11.807,390.337-1,431.047,15.394,453.759c9.693,13.428,28.016,17.351,46.122,17.351,24.535,0,48.671-7.2,50.4-7.73.122-.037.243-.078.362-.123A437.719,437.719,0,0,0,166.2,438.72a201.271,201.271,0,0,0,210.69-40.2,197.834,197.834,0,0,0,62.468-129.973,28.781,28.781,0,0,0-3.257-39,16.813,16.813,0,0,1-3.618-20.023A199.736,199.736,0,0,0,503.211,47.559,5.985,5.985,0,0,0,496.937,41.847ZM239.721,66.354a188.862,188.862,0,0,1,118.168,41.484,203.378,203.378,0,0,0-15.493,19.47,16.813,16.813,0,0,1-20.408-1.639,28.749,28.749,0,0,0-40.584,1.873L245.4,166.516a6,6,0,0,0,.4,8.533L268.65,195.6a39.488,39.488,0,0,0,26.484,10.126,39.947,39.947,0,0,0,16.1-3.388,5.982,5.982,0,0,0,1.467,2.078l8.535,7.77L298.5,218.128a6,6,0,0,0-4.309,4.371l0,.021c-9.255,12.493-28.89,38.367-53.343,66.995l-.6-.7c-.681-.8-1.338-1.633-1.949-2.481l-10.109-14.01c-6.872-9.527-17.409-15.142-28.326-15.142-.187,0-.376,0-.564,0L178.86,244.993a26.242,26.242,0,0,0-25.64-.619l-10.887,5.8a15.516,15.516,0,0,1-20.293-5.3l-10.575-16.6a16.752,16.752,0,0,1,.288-18.454,19.973,19.973,0,0,1,19.108-8.581l15.862,2a20.227,20.227,0,0,0,20.1-9.676,19.078,19.078,0,0,1,18.91-9.272l6.937.881a20.171,20.171,0,0,0,18.41-7.61l6.112-7.885a26.4,26.4,0,0,0,.8-31.42l-13.176-18.894a67.253,67.253,0,0,0-21.2-19.524,55.441,55.441,0,0,1-5.243-3.466l-17.248-12.9A188.019,188.019,0,0,1,239.721,66.354Zm93.312,75.621a199.717,199.717,0,0,0-18.983,44.317,27.72,27.72,0,0,1-37.376.382L258.34,170.192l31.908-34.539a16.749,16.749,0,0,1,23.662-1.11A28.732,28.732,0,0,0,333.033,141.975Zm-20.8,84.965,19.584-5.12,8.578,7.808-3.852,19.443Zm3.777,31.779a7.872,7.872,0,0,1-6.542,8.141l-9.971,1.713.772-10.084a7.946,7.946,0,0,1,5.55-6.943,7.816,7.816,0,0,1,1.943-.336q.189-.009.378-.009a7.891,7.891,0,0,1,7.87,7.518ZM149.134,89.5l22.053,16.491a67.506,67.506,0,0,0,6.385,4.222,55.182,55.182,0,0,1,17.4,16.016l13.176,18.895a14.459,14.459,0,0,1-.437,17.2l-6.111,7.884a8.135,8.135,0,0,1-7.417,3.058l-6.936-.882a31.06,31.06,0,0,0-30.778,15.118,8.354,8.354,0,0,1-8.239,3.829l-15.859-2a31.909,31.909,0,0,0-30.533,13.73,28.743,28.743,0,0,0-.491,31.657l10.575,16.6a27.572,27.572,0,0,0,36.057,9.441l10.886-5.8a14.181,14.181,0,0,1,13.85.334l20.663,12.329a11.106,11.106,0,0,0,5.971,1.562c7.238-.176,14.387,3.607,19.11,10.156l10.11,14.012c.8,1.114,1.664,2.207,2.558,3.253l1.786,2.09q-4.569,5.232-9.31,10.515-26.181,29.144-48.963,49.908a34.26,34.26,0,0,0-2.5-3.747l-22.429-29.24a19.836,19.836,0,0,1-3.384-6.773l-7.4-26.556a34.048,34.048,0,0,0-23.8-23.584l-1.614-.438a14.782,14.782,0,0,1-6.209-3.457L93.492,252.406a25.151,25.151,0,0,1-4.505-5.63,36.869,36.869,0,0,0-35.843-17.968C61.134,168.754,97.879,117.6,149.134,89.5ZM51.507,253.473c0-4.142.15-8.249.419-12.324l.558-.11A24.838,24.838,0,0,1,78.64,252.853a37.117,37.117,0,0,0,6.653,8.315L99.1,274.09a26.813,26.813,0,0,0,11.264,6.276l1.615.438a21.992,21.992,0,0,1,15.388,15.225l7.4,26.556a31.781,31.781,0,0,0,5.42,10.854l22.429,29.24a22.135,22.135,0,0,1,2.735,4.687Q141.026,388.341,121.18,398.8A185.584,185.584,0,0,1,51.507,253.473Zm9.7,90.4a198.873,198.873,0,0,0,47.658,60.293c-16.313,5.971-46.152,13.966-57.208,2.534C42.915,397.666,46.34,375.548,61.2,343.874Zm47.032,108.082c-18.3,5.523-68.373,15.213-83.116-5.227-6.535-9.06-8.4-27.273,10.41-63.837-2.014,14.35.532,25.047,7.621,32.278,6.746,6.88,16.625,9.288,27.162,9.288,24.443,0,52.4-12.973,52.8-13.167,29.579-14.515,66.392-46.16,109.418-94.057,30.379-33.817,56.057-67.154,68.706-84.081l6.669,6.071c-.235,0-.467-.012-.7,0a19.88,19.88,0,0,0-18.893,18.348l-1.359,17.76a6,6,0,0,0,7,6.371l17.558-3.015A19.869,19.869,0,0,0,328,258.156c-.011-.235-.048-.465-.067-.7l4.341,3.952C307.082,305.021,238.419,402.974,108.235,451.956Zm260.452-62.2a189.351,189.351,0,0,1-188.72,41.2C272.1,376.865,323.157,301.614,343.66,265.675a6,6,0,0,0,2.59-3.846l4.51-22.766,7.489,6.818a5.967,5.967,0,0,0,2.591,1.362A39.758,39.758,0,0,0,371.47,289.2l22.6,20.831a6,6,0,0,0,4.067,1.589c.094,0,.189,0,.284-.007a6,6,0,0,0,4.182-1.987l22.8-25.416A186.016,186.016,0,0,1,368.687,389.76ZM429.1,262.117l-31.371,34.969L379.6,280.376a27.721,27.721,0,0,1-2.749-37.724,198.322,198.322,0,0,0,41.972-22.588,28.728,28.728,0,0,0,9.193,18.358A16.781,16.781,0,0,1,429.1,262.117Zm-65.352-27.458L323.373,197.9a189.694,189.694,0,0,1,60.914-99.1A186.993,186.993,0,0,1,450.48,62.069a89.151,89.151,0,0,0,36.927,33.5A187.6,187.6,0,0,1,363.748,234.659ZM489.58,83.2a77.169,77.169,0,0,1-26.973-24.462,188.238,188.238,0,0,1,28.8-4.524A187.314,187.314,0,0,1,489.58,83.2Z"/><path d="M432.2,119.264A30.085,30.085,0,1,0,411.909,171.6q.72,0,1.445-.034a30.085,30.085,0,0,0,18.842-52.3Zm-6.88,34.422a18.085,18.085,0,1,1,4.692-13.022A17.969,17.969,0,0,1,425.316,153.686Z"/><path d="M197.132,380.5q-1.394,1.113-2.806,2.219a6,6,0,0,0,7.4,9.444q1.451-1.139,2.884-2.281a6,6,0,0,0-7.482-9.382Z"/><path d="M224.771,356.479c-4.809,4.547-9.778,9.037-14.77,13.344a6,6,0,1,0,7.84,9.085c5.129-4.426,10.234-9.038,15.175-13.709a6,6,0,0,0-8.245-8.72Z"/><path d="M273.215,312.476a6,6,0,0,0-8.441.868c-8.7,10.695-17.954,21.071-27.5,30.841a6,6,0,0,0,8.582,8.388c9.8-10.029,19.3-20.68,28.23-31.657A6,6,0,0,0,273.215,312.476Z"/><text x="0" y="527" fill="#000000" font-size="5px" font-weight="bold" font-family="'Helvetica Neue', Helvetica, Arial-Unicode, Arial, Sans-serif">Created by Icongeek26</text><text x="0" y="532" fill="#000000" font-size="5px" font-weight="bold" font-family="'Helvetica Neue', Helvetica, Arial-Unicode, Arial, Sans-serif">from the Noun Project</text></svg>